<svg xmlns="http://www.w3.org/2000/svg" viewBox="0 0 47.5 47.5"><defs><clipPath id="a"><path d="M0 38h38V0H0v38Z"/></clipPath></defs><g clip-path="url(#a)" transform="matrix(1.25 0 0 -1.25 0 47.5)">
<path fill="red" d="M37 5a4 4 0 0 0-4-4H5a4 4 0 0 0-4 4v28a4 4 0 0 0 4 4h28a4 4 0 0 0 4-4V5Z"/>
<path fill="#f5f8fa" d="M32.885 23.236a7.66 7.66 0 0 1-7.66 7.661A7.648 7.648 0 0 1 19 27.691a7.646 7.646 0 0 1-6.224 3.206 7.661 7.661 0 0 1-7.661-7.661c0-.6.077-1.18.207-1.74C6.385 14.887 13.734 7.915 19 6c5.266 1.915 12.614 8.887 13.678 15.496.131.56.207 1.14.207 1.74"/></g></svg>